<svg width="512" height="512" viewBox="0 0 512 512" fill="none" xmlns="http://www.w3.org/2000/svg">
<defs>
<linearGradient id="paint0_linear" x1="100" y1="100" x2="412" y2="412" gradientUnits="userSpaceOnUse">
<stop stop-color="#3b82f6"/> <stop offset="1" stop-color="#a855f7"/> </linearGradient>
</defs>
<rect width="512" height="512" fill="transparent"/> <path d="M234.5 128.5C205.8 99.8 159.2 99.8 130.5 128.5L88.5 170.5C59.8 199.2 59.8 245.8 88.5 274.5L146.5 332.5C149.6 335.6 153.7 337.3 158 337.3C162.3 337.3 166.4 335.6 169.5 332.5L197.5 304.5C200.6 301.4 202.3 297.3 202.3 293C202.3 288.7 200.6 284.6 197.5 281.5L152 236C145.8 229.8 145.8 219.6 152 213.4L194 171.4C200.2 165.2 210.4 165.2 216.6 171.4L262.1 216.9C265.2 220 269.3 221.7 273.6 221.7C277.9 221.7 282 220 285.1 216.9L313.1 188.9C316.2 185.8 317.9 181.7 317.9 177.4C317.9 173.1 316.2 169 313.1 165.9L234.5 128.5ZM381.5 179.5C378.4 176.4 374.3 174.7 370 174.7C365.7 174.7 361.6 176.4 358.5 179.5L330.5 207.5C327.4 210.6 325.7 214.7 325.7 219C325.7 223.3 327.4 227.4 330.5 230.5L376 276C382.2 282.2 382.2 292.4 376 298.6L334 340.6C327.8 346.8 317.6 346.8 311.4 340.6L265.9 295.1C262.8 292 258.7 290.3 254.4 290.3C250.1 290.3 246 292 242.9 295.1L214.9 323.1C211.8 326.2 210.1 330.3 210.1 334.6C210.1 338.9 211.8 343 214.9 346.1L293.5 424.7C322.2 453.4 368.8 453.4 397.5 424.7L439.5 382.7C468.2 354 468.2 307.4 439.5 278.7L381.5 179.5Z" fill="url(#paint0_linear)"/>
</svg>